<?xml version="1.0" standalone="no"?>
<!DOCTYPE svg PUBLIC "-//W3C//DTD SVG 1.1//EN" "http://www.w3.org/Graphics/SVG/1.1/DTD/svg11.dtd">
<svg xmlns="http://www.w3.org/2000/svg" version="1.2" viewBox="0 0 981 279" width="981" height="279"><style>.s0{fill:#D9D8D8}</style><path fill-rule="evenodd" class="s0" d="m381 149.8c0 16.9-14.8 30.3-33.1 30.3h-44.7v-105.1h43.5c18.1 0 31.6 11.6 31.6 27c0 9-4.4 17.5-11.9 22.7c9.4 4.9 14.6 14 14.6 25.1zm-22.8-2.3c0-6.8-4.9-11.7-12.4-11.7h-20.2v23.6h20.2c7.5-0.1 12.4-5 12.4-11.9zm-1.9-41.9c0-6.6-4.6-11.2-11.7-11.2h-19v22.4h19c7.1 0 11.7-4.6 11.7-11.2z"/><path class="s0" d="m398 69.8h22v110.4h-22z"/><path fill-rule="evenodd" class="s0" d="m523.6 98.9v81.1h-17.2l-1.9-7.3c-7 6.1-16.1 9.7-26.3 9.7c-24.4 0-42.6-18.4-42.6-43c0-24.5 18.2-42.7 42.6-42.7c10.4 0 19.6 3.7 26.7 9.9l2.3-7.8zm-21.5 40.6c0-12.7-9.3-22.2-22.1-22.2c-12.7 0-22.1 9.5-22.1 22.2c0 12.7 9.4 22.2 22.1 22.2c12.8 0 22.1-9.5 22.1-22.2z"/><path class="s0" d="m582.4 182.5c-24.4 0-43.1-18.8-43.1-43.1c0-24.3 18.5-42.6 43.2-42.6c21 0 37.3 13.3 41.3 33.3h-21.8c-3.6-8-10.9-12.7-19.6-12.7c-11.9 0-20.8 9.5-20.8 22.1c0 12.6 9.1 22.4 20.8 22.4c8.9 0 15.9-4.9 19.6-13.6h22c-3.8 20.3-20.4 34.2-41.6 34.2z"/><path class="s0" d="m688.4 180.2l-26-38.8v38.8h-21.9v-110.4h21.9v65.3l24.3-36h25.3l-27.4 38.6l30.4 42.5z"/><path fill-rule="evenodd" class="s0" d="m804.1 149.8c0 16.9-14.8 30.3-33.1 30.3h-44.7v-105.1h43.5c18.1 0 31.6 11.6 31.6 27c0 9-4.4 17.5-11.9 22.7c9.3 4.9 14.6 14 14.6 25.1zm-22.9-2.3c0-6.8-4.9-11.7-12.4-11.7h-20.2v23.6h20.2c7.5-0.1 12.4-5 12.4-11.9zm-1.9-41.9c0-6.6-4.6-11.2-11.7-11.2h-19v22.4h19c7.1 0 11.7-4.6 11.7-11.2z"/><path class="s0" d="m819.9 145.9v-46.9h21.9v44.4c0 11.5 6.1 18.4 16.2 18.4c10.2 0 16.1-7 16.1-18.4v-44.4h21.9v46.9c0 21.9-15.1 36.5-38 36.5c-22.8 0.1-38.1-14.6-38.1-36.5z"/><path class="s0" d="m916.1 69.8h21.9v110.4h-21.9z"/><path class="s0" d="m959.1 69.8h21.9v110.4h-21.9z"/><path fill-rule="evenodd" class="s0" d="m329.1 209.6c14.8 0 25.3 11.1 25.3 25.9c0 14.7-10.6 25.9-25.3 25.9c-9.1 0-16.9-4.4-21.3-11.4v28h-4.5v-67.3h3.3l1 10.8c4.3-7.3 12.1-11.9 21.5-11.9zm20.7 25.8c0-12.4-8.9-21.5-21.1-21.5c-12.1 0-21.2 9.2-21.2 21.5c0 12.2 9.1 21.5 21.2 21.5c12.3 0 21.1-9.1 21.1-21.5z"/><path fill-rule="evenodd" class="s0" d="m418.6 210.6v49.7h-3.8l-0.5-10.8c-4.3 7.2-12.1 11.8-21.6 11.8c-14.5 0-25.5-11.1-25.5-25.9c0-14.8 10.9-25.9 25.5-25.9c9.5 0 17.3 4.6 21.7 11.8l0.6-10.8zm-25.7 46.3c12.2 0 21.1-9.1 21.1-21.5c0-12.4-8.9-21.5-21.1-21.5c-12.1 0-21.2 9.3-21.2 21.5c0 12.3 9.1 21.5 21.2 21.5z"/><path class="s0" d="m465.3 210.4v4.3h-4.7c-10 0-16.3 7.3-16.3 17.9v27.7h-4.5v-49.7h3.4l0.8 9.8c3.3-6.2 9.1-10 17-10z"/><path class="s0" d="m502.8 256.1v4.2h-5.9c-9.7 0-15.7-6-15.7-15.8v-29.7h-8.3v-1l11.9-11.9h0.9v8.8h16.7v4.1h-16.7v29.6c0 7.5 4.2 11.8 11.7 11.8h5.4z"/><path class="s0" d="m560.4 230.8v29.5h-4.5v-28.6c0-11.3-5.9-18-15.9-18c-9.6 0-17.6 8.2-17.6 18.2v28.4h-4.5v-49.7h3.4l0.9 10.1c3.6-6.7 10.7-11.1 18.9-11.1c11.9 0 19.3 8.6 19.3 21.2z"/><path fill-rule="evenodd" class="s0" d="m626.2 237h-45.2c0.7 11.6 9.2 19.9 20.6 19.9c8.2 0 14.7-4.1 18.4-11.1h4.8c-4.5 10-12.8 15.5-23.1 15.5c-14.3 0-25.1-11.1-25.1-25.9c0-14.7 10.8-25.8 25.1-25.8c14.5 0 24.6 11.3 24.6 25.7c0 0.5-0.1 1.2-0.1 1.7zm-45.1-4.2h40.7c-1.1-11.4-9.4-18.9-20.2-18.9c-11 0-19.4 7.8-20.5 18.9z"/><path class="s0" d="m668.5 210.4v4.3h-4.7c-10 0-16.3 7.3-16.3 17.9v27.7h-4.5v-49.7h3.4l0.8 9.8c3.3-6.2 9.1-10 17-10z"/><path class="s0" d="m677.1 246.2h4.4c0.7 6.9 6.3 10.9 14.9 10.9c8.6 0 14.5-4 14.5-10.2c0-7.7-7.5-9.1-15.2-10.4c-8.6-1.5-17.6-3.1-17.6-13.3c0-8.1 7.3-13.6 18-13.6c10.8 0 17.7 5.5 18.1 14.4h-4.3c-0.4-6.5-5.5-10.3-13.9-10.3c-8.2 0-13.5 3.8-13.5 9.4c0 6.8 6.7 7.9 14.3 9.1c8.7 1.4 18.6 3.1 18.6 14.5c0 8.8-7.6 14.6-19 14.6c-11.5 0-18.7-5.8-19.3-15.1z"/><path fill-rule="evenodd" class="s0" d="m196.4 42.2c6.3-5.3 26.7-10.3 35-5.5c8.3 4.8 22.4 2.8 22.4 2.8c-14.9 11.4-35 7.3-35 7.3c-5 2.8-12.8 2.8-12.8 2.8c-2.5-3.5-9.5-7.3-9.6-7.4zm43.3 58.3c0 0-0.8 0.4-0.8 2.1c0 0 2.3 9.3-5.2 12.2c-7.6 2.8-12.6-2.4-12.6-2.4c0 0-6-7.4-14.9-8.4c0 0-4.5-0.2-3 4.2c0 0 0.3 3.4 3.7 2c0 0 5.6-3.2 9.6 2.7c0 0 2.5 6.9 11.6 7.1c0 0-6.1 7.2-24.7-3.2c0 0-17.6-11.4-26.2-8.2c0 0-13.7 5-9.7 19.3l5.2 20.6c0 0 4.5 10.2-8.4 14.6c0 0-27.5 6.6-36.8 19.7c0 0-8.6 13.9-15.9 19.4c0 0-11.1 13.6-32.5 15.1c0 0 25.9-9.6 34-44.3c0 0 3.1-32 28-40.3c0 0 13.8-3.3 17.6-18.4c0 0 4.1-14.1 23.7-21.9c0 0-4.3-3-10.6 1.8l-8.8 6.6c0 0-2.5 3.3-9.8 1.8c0 0-10.6-0.7-17.9-0.7c0 0-6.2 0-5.5-7.6c0 0 0.5-8.6-1-12.6c0 0-1.3-7.3 3-11.3c0 0-4.7-1.5-6 7.8c0 0-0.3 14.1-1.3 17.6c0 0-3.1 9.6 6.5 10.1l17.9-0.2c0 0 9.6-0.6 8.3 7c0 0-2 10.5-19.1 17.1c0 0-24.2 5.5-31 25.4c0 0-5.8 11.6-9.3 32c0 0 1.2 18.1-22.7 26.4c-34.8 12.4-42.3 30.5-42.3 30.5c-3.7 4.8-3 8.1-3 8.1c0 3.5-3 13.3-3 13.3c-6.3 17.6-17.4 11.8-17.4 11.8c-3.6-0.8-8.6-7.1-8.6-7.1c-1.8-3.3 6.5-10.1 6.5-10.1c4.7-4 13.3-17.4 13.3-17.4c4-4.3 2-11.6 2-11.6c-0.2-4.8 2.3-6.3 2.3-6.3c2-2 2.3-2 2.3-2c8.8-14.9 8.8-33 8.8-33c-0.7-9.3-4-2-4-2c-5 10.3-7.8 24.2-7.8 24.2c-2.3-12.6 6.3-34.5 6.3-34.5c3.2-7.1 6.5-17.4 6.5-17.4c1.7-6.6-0.8-5.3-0.8-5.3c-4 0.6-4.8 2.8-4.8 2.8c-9.3 15.9-12.3 60.2-12.3 60.2c-2.5-41 9.1-63.7 9.1-63.7c1.5-3 1.3-4.8 1.3-4.8c-0.5-4-2.3 0-2.3 0c-4.5 8.1-11.3 37.3-11.3 37.3c4.8-36.8 17.4-56.4 17.4-56.4c0 0 8.3-17.4 8.8 4c1.2 13.6 6.5 12.3 6.5 12.3c-6-29 8.3-43.6 8.3-43.6c2.7-3-3.8-0.5-3.8-0.5c-7.3 4.5-12.6 12.6-12.6 12.6c22.6-44.8 52.6-28.7 52.6-28.7c-20.6 8.3-25.9 28.7-25.9 28.7c10.5-16.2 47.3-38.3 47.3-38.3c-14.6 5-29.5 2-29.5 2c17.4-4.1 29.2-17.4 29.2-17.4c13.1 6.6 19.1 1.3 19.1 1.3c-9.1 1.5-15.6-5-15.6-5c-0.5-7.4-3.5-11.9-3.5-11.9c-4.8-6.3-6.6-12.6-6.6-12.6c8.3-8.9 33.7 13.3 33.7 13.3c-24.4-23.4-6.8-38-6.8-38c10.1-10.9 32.2-7.1 32.2-7.1c18.1 2.5 35.5 3.5 35.5 3.5c0 0-18.1 10.8-42.8 11.1c0 0-11.6-1-13.1 2c0 0-5.5 9.4 7.8 15.9c0 0 3.5 5.3-7.8 10.3c0 0 8.3 2.5 10.8-6.8c2.5-9.3 16.1-4.8 16.1-4.8c0 0 11.4 2.2 30.5 19.1c0 0 5.6 4.5 5.3 13.6c0 0-1.2 3 3.3 6.8c0 0 6.3 8.3 15.9 10.1c0 0 6.7-0.2 7.1 4c0.1 2.2 3.5 2.8 3.5 2.8c0 0 8.8 3 0.9 11.6zm-66.6 82.6c-5 8.8 5.3 15.9 5.3 15.9c4.7 3.8 6 5.3 6 5.3c11.8 17.1-9.1 30.2-9.1 30.2c-10.6 7.8-9.6 15.1-9.6 15.1c0.5 6.8-0.8 13.6-0.8 13.6c-2.2 8.3-9.3 2.5-9.3 2.5c-8.8-6.8-10.3-15.1-10.3-15.1c-1.7-4.7 3.3-6 3.3-6c3-2.8 3-10.6 3-10.6c0.3-5.7 4.3-6 4.3-6c4.5-1.3 5.8-5.3 5.8-5.3c3.7-6.8-7.6-13.1-7.6-13.1c-15.6-8.6-40.8 1.5-40.8 1.5c36.5-62.2 88.9-31 88.9-31c-26.4-6.3-29.2 3-29.1 3zm15.5-128.3c0 0-5.6-6.3-10.3-5.3c0 0-4.5-0.2-4.9 5.1c0 0-1.5 3 3.2 3.6l9.1 0.2c0 0 6.9-0.2 2.9-3.6zm44.6 33.9c-1.8-3.2-6.3-1.4-6.3-1.4c0 0-1.8 0.6-0.4 2.2c1.4 1.6-0.2 3-0.2 3c0 0-0.9 4 3.2 3.2c6.3-1.3 3.6-7.1 3.7-7z"/></svg>