<?xml version="1.0" encoding="UTF-8" standalone="no"?><svg xmlns="http://www.w3.org/2000/svg" xmlns:xlink="http://www.w3.org/1999/xlink" fill="none" height="447.9" preserveAspectRatio="xMidYMid meet" style="fill: none" version="1" viewBox="47.2 26.7 406.3 447.9" width="406.3" zoomAndPan="magnify"><g id="change1_1"><path clip-rule="evenodd" d="M312.801 26.749H228.292C190.006 26.7487 159.68 26.7484 135.946 29.9393C111.521 33.2233 91.7509 40.1424 76.16 55.7333C60.5691 71.3242 53.65 91.0939 50.3661 115.519C47.1752 139.253 47.1755 169.579 47.1758 207.865V334.041C47.1758 373.046 75.7602 405.375 113.124 411.222C115.998 427.139 121.499 440.725 132.558 451.783C145.098 464.323 160.887 469.717 179.639 472.238C197.701 474.666 220.666 474.666 249.158 474.666H313.944C342.435 474.666 365.4 474.666 383.462 472.238C402.215 469.717 418.004 464.323 430.544 451.783C443.083 439.243 448.477 423.454 450.998 404.702C453.427 386.64 453.426 363.675 453.426 335.184V228.731C453.426 200.239 453.427 177.274 450.998 159.213C448.477 140.46 443.083 124.671 430.544 112.131C419.485 101.073 405.899 95.5716 389.982 92.6972C384.135 55.3334 351.806 26.749 312.801 26.749ZM357.162 89.69C350.853 71.2539 333.375 57.999 312.801 57.999H229.467C189.742 57.999 161.52 58.0322 140.11 60.9107C119.15 63.7287 107.074 69.0135 98.2571 77.8303C89.4402 86.6472 84.1555 98.7232 81.3374 119.683C78.459 141.093 78.4258 169.315 78.4258 209.041V334.041C78.4258 354.615 91.6807 372.093 110.117 378.402C109.675 365.694 109.676 351.326 109.676 335.184V228.731C109.675 200.239 109.675 177.274 112.103 159.213C114.625 140.46 120.018 124.671 132.558 112.131C145.098 99.5914 160.887 94.1978 179.639 91.6766C197.701 89.2483 220.666 89.2486 249.158 89.249H313.944C330.086 89.2488 344.454 89.2486 357.162 89.69ZM154.655 134.228C160.421 128.463 168.516 124.703 183.803 122.648C199.54 120.532 220.396 120.499 250.301 120.499H312.801C342.705 120.499 363.562 120.532 379.298 122.648C394.585 124.703 402.681 128.463 408.446 134.228C414.212 139.994 417.972 148.09 420.027 163.377C422.143 179.113 422.176 199.97 422.176 229.874V334.041C422.176 363.945 422.143 384.802 420.027 400.538C417.972 415.825 414.212 423.92 408.446 429.686C402.681 435.452 394.585 439.212 379.298 441.267C363.562 443.383 342.705 443.416 312.801 443.416H250.301C220.396 443.416 199.54 443.383 183.803 441.267C168.516 439.212 160.421 435.452 154.655 429.686C148.889 423.92 145.13 415.825 143.075 400.538C140.959 384.802 140.926 363.945 140.926 334.041V229.874C140.926 199.97 140.959 179.113 143.075 163.377C145.13 148.09 148.889 139.994 154.655 134.228Z" fill="#c7b3fc" fill-rule="evenodd"/></g></svg>