<?xml version="1.0" encoding="UTF-8" standalone="no"?><svg xmlns="http://www.w3.org/2000/svg" xmlns:xlink="http://www.w3.org/1999/xlink" fill="#514c58" height="116.1" preserveAspectRatio="xMidYMid meet" version="1" viewBox="2.4 6.4 119.1 116.1" width="119.1" zoomAndPan="magnify"><g data-name="Layer 3" id="change1_1"><path d="M93.57,25.43a22.77,22.77,0,0,0-38.79,14l-12.4-.81a34.11,34.11,0,0,1,34-32.19,34.11,34.11,0,0,1,34.07,34.06V58.91H100.24V41.54A22.63,22.63,0,0,0,93.57,25.43Zm27.9,90.73a6.34,6.34,0,0,1-6.34,6.34h-76a6.35,6.35,0,0,1-6.35-6.34V69.25a6.35,6.35,0,0,1,6.35-6.34h76.05a6.34,6.34,0,0,1,6.34,6.34Z" fill="inherit"/><path d="M13.32,19.05l7.3,14L8.45,25.08Z" fill="inherit"/><path d="M17.48,51.19,3.3,54.36l-.91-7.7Z" fill="inherit"/><path d="M5.17,69.72l15.19-4.2L10.05,75.75Z" fill="inherit"/></g></svg>