<?xml version="1.0" encoding="utf-8"?>
<!-- Generator: Adobe Illustrator 26.0.1, SVG Export Plug-In . SVG Version: 6.00 Build 0)  -->
<svg version="1.1" id="Layer_1" xmlns="http://www.w3.org/2000/svg" xmlns:xlink="http://www.w3.org/1999/xlink" x="0px" y="0px"
	 viewBox="0 0 816 175.7" style="enable-background:new 0 0 816 175.7;" xml:space="preserve">
<style type="text/css">
	.st0{fill:#333333;}
	.st1{fill:none;}
	.st2{fill:#FBB040;}
	.st3{fill:#ED1C24;}
	.st4{fill:#27AAE1;}
	.st5{fill:#8DC63F;}
	.st6{fill:#FFFFFF;}
</style>
<g>
	<g>
		<path class="st6" d="M127.3,71.8h16.4c0-0.5,0.1-0.9,0.1-1.4s0-0.9-0.1-1.4h-16.4V71.8z"/>
		<path class="st6" d="M186.6,71.8h16.5c0-0.5,0.1-0.9,0.1-1.4s0-0.9-0.1-1.4h-16.5V71.8z"/>
		<path class="st6" d="M163.7,33.2v16.5c0.5,0,0.9,0.1,1.4,0.1s0.9,0,1.4-0.1V33.2H163.7z"/>
		<path class="st6" d="M163.7,92.4v16.5c0.5,0,0.9,0.1,1.4,0.1s0.9,0,1.4-0.1V92.4H163.7z"/>
		<path class="st1" d="M168.2,45.9v4H162v-4c-10.9,1.4-19.6,10-21.2,20.8h4.4v6.2h-4.6c1.2,11.4,10.1,20.5,21.3,22v-5.2h6.2v5.2
			c11.4-1.4,20.5-10.5,21.6-22H185v-6.2h4.7C188,55.8,179.3,47.2,168.2,45.9z"/>
		<g>
			<path class="st2" d="M189.7,67.4h9.8c-1.7-16.3-14.9-29.2-31.3-30.6v9.8C179.3,47.9,188,56.5,189.7,67.4z"/>
			<path class="st3" d="M162,46.6v-9.8c-16.3,1.5-29.3,14.4-31,30.6h9.8C142.4,56.6,151.1,48,162,46.6z"/>
			<path class="st4" d="M140.7,73.6h-9.8c1.2,16.8,14.4,30.2,31.1,31.8v-9.8C150.7,94.1,141.8,85,140.7,73.6z"/>
			<path class="st5" d="M168.2,95.6v9.8c16.8-1.4,30.2-14.9,31.4-31.8h-9.8C188.7,85.1,179.6,94.3,168.2,95.6z"/>
		</g>
	</g>
	<path class="st6" d="M30.4,105.4c-9.7,0-15.9-2.7-25.1-9l3.8-10.6C17.8,91,24,94,29.3,94c6.5,0,16.1-2.5,16.1-9.8
		c0-6-7.7-7.4-16.8-8.5c-11.2-1.4-24-3.6-24-18.9c0-16.7,16.3-20.3,26.3-20.3c9,0,17.1,2.7,24.9,8.4l-3.5,9.7
		c-6.7-4.4-14.6-6.8-21.4-6.8c-10.9,0-14.5,4.5-14.5,8.5c0,6.7,11.7,6.9,15.6,7.4c10.7,1.1,25.5,3.4,25.5,20.6
		C57.4,101,41.1,105.4,30.4,105.4z"/>
	<path class="st6" d="M67.2,71c0-21.6,16.2-34.9,31-34.9c11.8,0,20.4,5.4,26.6,11.6l-5.3,9.9c-5.2-5-11.5-9.8-20.8-9.8
		c-9.9,0-19.4,8.9-19.4,23.5c0,14.2,9.5,23.4,19.3,23.4c9.3,0,16-4.9,21.3-10l6,8.6c-3.5,5-13.3,12.9-27.3,12.9
		C84.8,106.1,67.2,94.1,67.2,71z"/>
	<path class="st6" d="M236.9,84.6h-15.3v19.9h-12.2V38.1h27.2c12.8,0,23.4,8.6,23.4,23.6C259.9,76,249.6,84.6,236.9,84.6z
		 M236.7,50.3h-15.1v23.1h13.6c6.9,0,12.5-4.9,12.5-11.5C247.7,56.1,243.6,50.1,236.7,50.3z"/>
	<path class="st6" d="M272.7,104.4V38.1h45.9V49h-33.7v17.3h28.8v10.5h-28.8v16.7h34.6v11L272.7,104.4L272.7,104.4z"/>
	<g>
		<g>
			<path class="st6" d="M429.1,104.7h-10.9l-3.5-39.1l-0.2-0.2l-20.4,38.1h-3.6l-19.3-37.9L371,66l-3.4,38.7h-10.8l4.6-66.3h7.1
				l24.2,45.5h0.1l24.5-45.5h6.5L429.1,104.7z"/>
			<path class="st6" d="M488.1,104.7l-5.5-14.9l-26.3,0.1l-5.6,14.8h-11.6l26.1-66.5h9.9l25,66.5H488.1z M469.6,54.4L469.6,54.4
				l-9.5,24.8h18.6L469.6,54.4z"/>
			<path class="st6" d="M549.2,104.7c0,0-12.2-19.3-17.3-26.3h-9.4l-0.1,26.3h-12.1V38.4h30.2c12.6,0,21.6,7.9,21.6,19.4
				c0,10.6-7.9,18.7-17.5,20.1l0.9,0.4l16,25.4v1.1h-12.3V104.7z M540.9,49.4h-18.4v17.4L540,67c6.8,0,10.8-4.2,10.8-9.1
				C550.8,53.1,547.8,49.4,540.9,49.4z"/>
			<path class="st6" d="M614,104.7l-18.4-29.5l-6.7,7.6v22h-12.2V38.4H589v28.8l24.9-28.8h13l-23.3,27.3l24.6,39H614z"/>
			<path class="st6" d="M637.2,104.7V38.4h45.9v10.9h-33.7v17.3h28.8v10.5h-28.8v16.7H684v11h-46.8V104.7z"/>
			<path class="st6" d="M727.4,49.3v55.5h-12.2l-0.1-55.5h-22.5V38.4h57.3v10.9C749.9,49.3,727.4,49.3,727.4,49.3z"/>
			<path class="st6" d="M784.2,105.7c-9.7,0-15.9-2.6-25.1-9l3.8-10.6c8.7,5.2,15,8.2,20.3,8.2c6.5,0,16.1-2.5,16.1-9.8
				c0-6-7.7-7.4-16.8-8.5c-11.2-1.4-24-3.6-24-18.9c0-16.7,16.3-20.3,26.3-20.3c9,0,17.1,2.7,24.9,8.4l-3.5,9.7
				c-6.7-4.4-14.6-6.8-21.4-6.8c-10.9,0-14.5,4.5-14.5,8.5c0,6.7,11.7,6.9,15.6,7.4c10.7,1.1,25.5,3.4,25.5,20.6
				C811.2,101.3,795,105.7,784.2,105.7z"/>
		</g>
	</g>
	<g>
		<path class="st6" d="M23.9,128h-3.1c-1.1-2.3-3.3-3.7-6.1-3.7c-4.2,0-7.4,3.1-7.4,7.9c0,4.8,3.2,7.9,7.4,7.9
			c3.9,0,6.7-2.5,7.1-6.5h-8v-2.1h10.8v2c-0.5,5-4.4,9-9.9,9c-5.7,0-10.1-4.2-10.1-10.2S9,122,14.6,122
			C18.9,122,22.4,124.2,23.9,128z"/>
		<path class="st6" d="M53.6,122.2v18h7v2.1H51v-20.1C51,122.2,53.6,122.2,53.6,122.2z"/>
		<path class="st6" d="M95.6,142.5c-5.7,0-10.1-4.2-10.1-10.3S90,122,95.6,122c5.7,0,10.1,4.2,10.1,10.3S101.3,142.5,95.6,142.5z
			 M95.6,140.2c4.2,0,7.4-3.1,7.4-8c0-4.9-3.2-8-7.4-8c-4.2,0-7.4,3.1-7.4,8C88.2,137.1,91.4,140.2,95.6,140.2z"/>
		<path class="st6" d="M139.8,142.3h-7.5v-20.1h7.2c4.2,0,6.4,2.3,6.4,5.1c0,2.5-1.6,4-3.5,4.6c2.2,0.4,4,2.5,4,5
			C146.3,139.9,143.9,142.3,139.8,142.3z M139.2,124.4h-4.4v6.5h4.4c2.5,0,3.9-1.2,3.9-3.3C143.2,125.6,141.8,124.4,139.2,124.4z
			 M139.4,133h-4.6v7.1h4.6c2.6,0,4.2-1.3,4.2-3.5C143.7,134.4,142,133,139.4,133z"/>
		<path class="st6" d="M184.9,137.8h-8.8l-1.6,4.5h-2.8l7.3-20h3l7.2,20h-2.8L184.9,137.8z M180.5,125.5l-3.6,10.1h7.3L180.5,125.5z
			"/>
		<path class="st6" d="M218.1,122.2v18h7v2.1h-9.7v-20.1C215.4,122.2,218.1,122.2,218.1,122.2z"/>
		<path class="st6" d="M290.9,142.5c-5.7,0-10.1-4.2-10.1-10.3s4.4-10.3,10.1-10.3s10.1,4.2,10.1,10.3S296.6,142.5,290.9,142.5z
			 M290.9,140.2c4.2,0,7.4-3.1,7.4-8c0-4.9-3.2-8-7.4-8c-4.2,0-7.4,3.1-7.4,8C283.5,137.1,286.6,140.2,290.9,140.2z"/>
		<path class="st6" d="M343.3,122.2v20.1h-2.6l-10.6-16v16h-2.6v-20.1h2.6l10.6,16v-16L343.3,122.2L343.3,122.2z"/>
		<path class="st6" d="M373.4,122.2v18h7v2.1h-9.7v-20.1C370.7,122.2,373.4,122.2,373.4,122.2z"/>
		<path class="st6" d="M406.3,122.2h2.6v20.1h-2.6V122.2z"/>
		<path class="st6" d="M452.3,122.2v20.1h-2.6l-10.6-16v16h-2.6v-20.1h2.6l10.6,16v-16L452.3,122.2L452.3,122.2z"/>
		<path class="st6" d="M490.6,124.3h-8.2v6.7h7.3v2.2h-7.3v6.9h8.2v2.2h-10.8v-20.1h10.8V124.3z"/>
		<path class="st6" d="M547.2,122.2h13.6v2.1h-5.5v18h-2.6v-18h-5.5V122.2z"/>
		<path class="st6" d="M593.5,122.2c4.7,0,7,2.6,7,5.9c0,2.6-1.4,5-4.8,5.8l5,8.4h-3.1l-4.8-8.2h-3.2v8.2h-2.6v-20.1
			C587.1,122.2,593.5,122.2,593.5,122.2z M593.5,124.4h-3.9v7.6h3.9c3,0,4.3-1.6,4.3-3.9C597.9,125.8,596.5,124.4,593.5,124.4z"/>
		<path class="st6" d="M639.5,137.8h-8.8l-1.6,4.5h-2.8l7.3-20h3l7.2,20h-2.8L639.5,137.8z M635.2,125.5l-3.6,10.1h7.3L635.2,125.5z
			"/>
		<path class="st6" d="M687,132.3c0,6.2-4.1,10-10.7,10H670v-20.1h6.3C683,122.2,687,126.1,687,132.3z M676.5,140.1
			c5.2,0,8-2.9,8-7.8c0-4.9-2.7-8-8-8h-3.6v15.8H676.5z"/>
		<path class="st6" d="M713.5,122.2h2.6v20.1h-2.6V122.2z"/>
		<path class="st6" d="M759.5,122.2v20.1H757l-10.6-16v16h-2.6v-20.1h2.6l10.6,16v-16L759.5,122.2L759.5,122.2z"/>
		<path class="st6" d="M805.5,128h-3.1c-1.1-2.3-3.3-3.7-6.1-3.7c-4.2,0-7.4,3.1-7.4,7.9c0,4.8,3.2,7.9,7.4,7.9
			c3.9,0,6.7-2.5,7.1-6.5h-8v-2.1h10.8v2c-0.5,5-4.4,9-9.9,9c-5.7,0-10.1-4.2-10.1-10.2s4.4-10.3,10.1-10.3
			C800.5,122,804,124.2,805.5,128z"/>
	</g>
</g>
</svg>
