<?xml version="1.0" encoding="UTF-8" standalone="no"?><svg xmlns="http://www.w3.org/2000/svg" xmlns:xlink="http://www.w3.org/1999/xlink" fill="#c7b3fc" height="754.4" preserveAspectRatio="xMidYMid meet" version="1" viewBox="0.0 0.0 342.8 754.4" width="342.8" zoomAndPan="magnify"><defs><clipPath id="a"><path d="M 0 0 L 337 0 L 337 754.398438 L 0 754.398438 Z M 0 0"/></clipPath><clipPath id="b"><path d="M 103 314 L 342.75 314 L 342.75 594 L 103 594 Z M 103 314"/></clipPath></defs><g><g clip-path="url(#a)" id="change1_1"><path d="M 116.859375 472.703125 L 47.789062 475.164062 L 14.324219 221.578125 L 69.816406 219.601562 C 73.921875 277.226562 80.792969 362.742188 84.59375 419.890625 L 95.9375 419.488281 C 112.53125 364.097656 148.746094 271.992188 168.765625 216.078125 L 233.273438 213.855469 C 193.390625 300.085938 154.628906 386.824219 116.90625 474.019531 Z M 69.679688 615.308594 C 164.714844 412.976562 255.539062 208.476562 336.335938 0.00390625 C 302.492188 66.410156 270.570312 133.761719 239.097656 201.304688 L 239.089844 201.035156 L 159.855469 203.765625 C 144.605469 246.113281 108.6875 340.609375 94.621094 382.300781 C 91.882812 342.46875 84.289062 247.265625 81.503906 206.5625 L 0 209.464844 L 36.78125 488.179688 L 111.949219 485.5 C 73.707031 574.519531 36.148438 663.863281 1.605469 754.398438 C 25.113281 708.433594 47.523438 661.933594 69.679688 615.308594"/></g><g clip-path="url(#b)" id="change1_4"><path d="M 338.195312 336.375 C 305.949219 315.199219 255.589844 308.875 218.863281 320.265625 L 222.660156 332.292969 C 248.1875 320.828125 311.175781 331.671875 326.414062 343.773438 L 305.773438 384.230469 C 293.117188 375.554688 253.890625 363.976562 236.394531 375.003906 C 219.394531 383.53125 218.203125 405.328125 230.019531 417 C 243.421875 432.882812 274.265625 453.140625 282.640625 472.191406 C 295.707031 494.957031 288.988281 524.652344 276.113281 544.597656 C 245.96875 594.59375 156.726562 584.457031 119.707031 561.230469 L 138.800781 519.691406 C 158.015625 530.953125 183.335938 539.773438 206.03125 536.992188 C 230.007812 534.441406 241.605469 507.699219 225.730469 488.800781 C 213.144531 473.722656 182.347656 452.554688 174.496094 435.59375 L 163.605469 441.960938 C 171.503906 459.304688 202.242188 481.4375 215.761719 496.523438 C 222.210938 504.253906 222.160156 514.566406 214.613281 520.4375 C 191.1875 533.632812 153.140625 515.566406 133.585938 500.832031 L 103.761719 565.71875 C 167.753906 611.105469 290.757812 606.144531 301.804688 509.433594 C 309.628906 444.164062 240.625 428.433594 234.640625 396.875 C 238.550781 369.027344 298.460938 391.019531 304.65625 398.414062 C 304.65625 398.410156 310.59375 402.539062 310.59375 402.539062 L 342.753906 339.511719 L 338.195312 336.375"/></g><g id="change1_2"><path d="M 103.710938 605.230469 C 80.78125 648.066406 60.496094 692.597656 45.832031 738.96875 C 60.382812 715.269531 72.550781 690.15625 84.054688 664.867188 C 95.363281 639.484375 106.097656 613.742188 114.226562 587.136719 C 110.507812 593.054688 107.085938 599.125 103.710938 605.230469"/></g><g id="change1_3"><path d="M 225.726562 174.132812 C 248.667969 131.304688 268.894531 86.746094 283.597656 40.390625 C 269.058594 64.105469 256.890625 89.203125 245.371094 114.492188 C 234.054688 139.863281 223.308594 165.617188 215.199219 192.222656 C 218.925781 186.308594 222.347656 180.238281 225.726562 174.132812"/></g></g></svg>