<svg width="23" height="24" viewBox="0 0 23 24" fill="none" xmlns="http://www.w3.org/2000/svg">
<path d="M0 11.951C0 11.2548 0 10.568 0 9.88123C0 8.10307 0.00940822 6.31551 0.00940822 4.53736C0.00940822 2.08181 1.57117 0.284839 4.02672 0.0778583C5.61671 -0.0538568 7.21611 0.0214089 8.8155 0.0214089C12.1931 0.0308172 15.58 0.0496336 18.9576 0.0590418C21.1779 0.06845 22.9184 1.78075 22.9278 3.99168C22.9278 5.08303 22.8902 6.17439 22.8714 7.26574C22.8243 9.31673 21.6013 10.6339 20.0207 11.6688C18.5248 12.6472 16.8031 13.0894 15.0814 13.4563C14.3475 13.6069 13.6043 13.6633 12.8234 13.7574C12.7952 13.5692 12.7575 13.4187 12.7387 13.2776C12.6352 12.4497 12.6541 12.4214 13.4161 12.1298C15.5048 11.3301 16.4832 9.56135 16.1351 7.32219C16.0128 6.52249 16.0034 5.70398 15.9846 4.89487C15.9752 4.27393 16.2856 3.95405 16.9066 3.86937C17.4146 3.80351 17.9321 3.76588 18.5624 3.70943C17.7439 2.95677 17.1324 2.11003 16.1727 1.68666C15.5424 1.40442 15.0155 1.67726 14.5827 2.14767C13.4161 3.40837 12.2307 4.65966 11.1111 5.958C9.5023 7.83023 7.94054 9.7401 6.35055 11.6312C6.17179 11.8475 5.98363 12.0639 5.79547 12.2615C5.28742 12.8072 4.71352 13.033 3.94205 12.8354C2.64371 12.5061 1.33597 12.2427 0 11.951Z" fill="white"/>
<path d="M0.41394 20.8888C1.44884 20.5125 2.4273 20.1832 3.37753 19.8163C5.82367 18.8849 8.23217 17.8594 10.6971 17.0126C13.0962 16.1941 15.5424 15.5261 17.9885 14.8488C18.5812 14.6888 19.2304 14.6982 19.8419 14.6982C20.5758 14.7076 20.8392 15.1969 20.397 15.7896C19.9736 16.3635 19.475 16.8997 18.9293 17.3607C17.1324 18.8849 15.2977 20.3714 13.4726 21.8673C13.2279 22.0649 12.9645 22.253 12.7763 22.4976C12.4659 22.8928 12.0801 22.968 11.6003 22.968C8.90957 22.9398 6.20941 22.9586 3.51865 22.9492C2.30499 22.9492 1.36417 22.4036 0.667962 21.4157C0.592697 21.2746 0.526839 21.1146 0.41394 20.8888Z" fill="#00BA6C"/>
<path d="M14.5546 22.9868C17.3958 20.4748 20.1713 18.0193 22.9749 15.5355C22.9279 16.9562 22.9937 18.4615 22.7868 19.9198C22.561 21.538 20.9992 22.8457 19.3434 22.9398C17.8474 23.0245 16.3421 22.9868 14.8368 23.0057C14.771 23.0057 14.6957 22.9962 14.5546 22.9868Z" fill="#00BA6C"/>
<path d="M0.0281982 13.6068C3.16114 14.2183 6.27526 14.8205 9.51169 15.4414C9.17299 15.6296 8.91897 15.8083 8.62731 15.9118C6.48224 16.7021 4.33716 17.4924 2.18268 18.2451C1.49588 18.4803 0.780856 18.6214 0.0281982 18.819C0.0281982 17.0126 0.0281982 15.3191 0.0281982 13.6068Z" fill="#00BA6C"/>
<path d="M10.2926 13.748C9.16362 13.6351 8.03464 13.5222 6.89624 13.4093C7.23494 12.3933 8.05345 11.9228 9.06954 12.1298C10.2079 12.3462 10.3114 12.4873 10.2926 13.748Z" fill="white"/>
<path d="M11.1111 12.572C11.9861 12.5155 11.9861 12.5155 12.1084 13.748C11.9202 13.7574 11.732 13.7668 11.5533 13.7762C11.4121 13.7762 11.2804 13.7762 11.1111 13.7762C11.1111 13.3623 11.1111 12.9765 11.1111 12.572Z" fill="white"/>
</svg>
